<svg width="138" height="40" viewBox="0 0 138 40" fill="none" xmlns="http://www.w3.org/2000/svg">
<path d="M132.889 0.801252C135.255 0.801252 137.181 2.685 137.181 5V35C137.181 37.315 135.255 39.1988 132.889 39.1988H5.11111C2.74467 39.1988 0.819055 37.315 0.819055 35V5C0.819055 2.685 2.74467 0.801252 5.11111 0.801252H132.889ZM132.889 2.11397e-06H5.11111C2.30128 2.11397e-06 0 2.25125 0 5V35C0 37.7487 2.30128 40 5.11111 40H132.889C135.699 40 138 37.7487 138 35V5C138 2.25125 135.699 2.11397e-06 132.889 2.11397e-06Z" fill="white"/>
<path d="M30.7975 19.784C30.7679 16.561 33.4952 14.993 33.6199 14.92C32.0753 12.717 29.6812 12.416 28.84 12.392C26.8292 12.185 24.8788 13.569 23.8546 13.569C22.8099 13.569 21.2326 12.412 19.5326 12.446C17.3451 12.479 15.2986 13.718 14.1762 15.642C11.8598 19.565 13.5874 25.33 15.8066 28.501C16.9168 30.054 18.214 31.788 19.9119 31.727C21.573 31.66 22.1935 30.691 24.198 30.691C26.1842 30.691 26.7669 31.727 28.4985 31.688C30.2813 31.66 31.4037 30.128 32.475 28.561C33.7579 26.781 34.2731 25.028 34.2935 24.938C34.2516 24.924 30.8312 23.647 30.7975 19.784Z" fill="white"/>
<path d="M27.5264 10.306C28.4198 9.21304 29.0311 7.72604 28.8614 6.21704C27.5683 6.27304 25.9512 7.09204 25.0199 8.16104C24.196 9.10304 23.46 10.647 23.6501 12.099C25.1027 12.205 26.5941 11.382 27.5264 10.306Z" fill="white"/>
<path d="M54.8372 31.5039H52.5157L51.2441 27.5949H46.824L45.6127 31.5039H43.3525L47.7317 18.1959H50.4365L54.8372 31.5039ZM50.8608 25.9549L49.7108 22.4799C49.5891 22.1249 49.3612 21.2889 49.0248 19.9729H48.984C48.85 20.5389 48.6344 21.3749 48.3379 22.4799L47.2084 25.9549H50.8608Z" fill="white"/>
<path d="M66.0989 26.5879C66.0989 28.2199 65.6481 29.5099 64.7465 30.4569C63.939 31.2999 62.9362 31.7209 61.7392 31.7209C60.4471 31.7209 59.5189 31.2669 58.9536 30.3589H58.9127V35.4139H56.7333V25.0669C56.7333 24.0409 56.7057 22.9879 56.6526 21.9079H58.5693L58.6909 23.4289H58.7318C59.4586 22.2829 60.5616 21.7109 62.0417 21.7109C63.1989 21.7109 64.1649 22.1579 64.9377 23.0529C65.7125 23.9489 66.0989 25.1269 66.0989 26.5879ZM63.8787 26.6659C63.8787 25.7319 63.664 24.9619 63.2326 24.3559C62.7614 23.7239 62.1286 23.4079 61.3354 23.4079C60.7977 23.4079 60.3091 23.5839 59.8726 23.9309C59.4351 24.2809 59.1489 24.7379 59.0149 25.3039C58.9475 25.5679 58.9137 25.7839 58.9137 25.9539V27.5539C58.9137 28.2519 59.1325 28.8409 59.57 29.3219C60.0075 29.8029 60.5759 30.0429 61.2751 30.0429C62.0959 30.0429 62.7348 29.7329 63.1917 29.1149C63.6497 28.4959 63.8787 27.6799 63.8787 26.6659Z" fill="white"/>
<path d="M77.3814 26.5879C77.3814 28.2199 76.9306 29.5099 76.0279 30.4569C75.2214 31.2999 74.2186 31.7209 73.0216 31.7209C71.7295 31.7209 70.8013 31.2669 70.2371 30.3589H70.1962V35.4139H68.0168V25.0669C68.0168 24.0409 67.9892 22.9879 67.936 21.9079H69.8527L69.9743 23.4289H70.0152C70.741 22.2829 71.844 21.7109 73.3252 21.7109C74.4813 21.7109 75.4473 22.1579 76.2222 23.0529C76.994 23.9489 77.3814 25.1269 77.3814 26.5879ZM75.1611 26.6659C75.1611 25.7319 74.9454 24.9619 74.514 24.3559C74.0428 23.7239 73.4121 23.4079 72.6178 23.4079C72.0791 23.4079 71.5915 23.5839 71.154 23.9309C70.7165 24.2809 70.4313 24.7379 70.2974 25.3039C70.2309 25.5679 70.1962 25.7839 70.1962 25.9539V27.5539C70.1962 28.2519 70.4149 28.8409 70.8504 29.3219C71.2879 29.8019 71.8563 30.0429 72.5575 30.0429C73.3784 30.0429 74.0172 29.7329 74.4742 29.1149C74.9321 28.4959 75.1611 27.6799 75.1611 26.6659Z" fill="white"/>
<path d="M89.9956 27.772C89.9956 28.904 89.5939 29.825 88.7874 30.536C87.9011 31.313 86.6673 31.701 85.0818 31.701C83.618 31.701 82.4445 31.425 81.5562 30.872L82.0611 29.095C83.0179 29.661 84.0678 29.945 85.2116 29.945C86.0325 29.945 86.6714 29.763 87.1303 29.401C87.5873 29.039 87.8152 28.553 87.8152 27.947C87.8152 27.407 87.6271 26.952 87.2499 26.583C86.8748 26.214 86.2482 25.871 85.3731 25.554C82.9914 24.685 81.8015 23.412 81.8015 21.738C81.8015 20.644 82.2186 19.747 83.0537 19.049C83.8858 18.35 84.9959 18.001 86.3841 18.001C87.622 18.001 88.6504 18.212 89.4712 18.633L88.9264 20.371C88.1597 19.963 87.2929 19.759 86.3228 19.759C85.5561 19.759 84.9571 19.944 84.5278 20.312C84.1649 20.641 83.9829 21.042 83.9829 21.517C83.9829 22.043 84.1904 22.478 84.6075 22.82C84.9704 23.136 85.6297 23.478 86.5865 23.847C87.757 24.308 88.6166 24.847 89.1697 25.465C89.7206 26.081 89.9956 26.852 89.9956 27.772Z" fill="white"/>
<path d="M97.2012 23.508H94.7989V28.167C94.7989 29.352 95.2221 29.944 96.0706 29.944C96.46 29.944 96.7831 29.911 97.0386 29.845L97.0989 31.464C96.6696 31.621 96.1043 31.7 95.4041 31.7C94.5434 31.7 93.8708 31.443 93.3852 30.93C92.9017 30.416 92.6584 29.554 92.6584 28.343V23.506H91.2273V21.906H92.6584V20.149L94.7989 19.517V21.906H97.2012V23.508Z" fill="white"/>
<path d="M108.04 26.6269C108.04 28.1019 107.608 29.3129 106.748 30.2599C105.845 31.2349 104.647 31.7209 103.154 31.7209C101.714 31.7209 100.568 31.2539 99.7137 30.3199C98.8592 29.3859 98.4319 28.2069 98.4319 26.7859C98.4319 25.2989 98.8714 24.0809 99.7536 23.1339C100.634 22.1859 101.822 21.7119 103.315 21.7119C104.754 21.7119 105.913 22.1789 106.786 23.1139C107.623 24.0209 108.04 25.1919 108.04 26.6269ZM105.779 26.6959C105.779 25.8109 105.585 25.0519 105.194 24.4189C104.737 23.6529 104.084 23.2709 103.237 23.2709C102.361 23.2709 101.696 23.6539 101.239 24.4189C100.847 25.0529 100.654 25.8239 100.654 26.7359C100.654 27.6209 100.847 28.3799 101.239 29.0119C101.71 29.7779 102.368 30.1599 103.218 30.1599C104.05 30.1599 104.703 29.7699 105.174 28.9919C105.576 28.3469 105.779 27.5799 105.779 26.6959Z" fill="white"/>
<path d="M115.124 23.7829C114.908 23.7439 114.678 23.7239 114.437 23.7239C113.67 23.7239 113.077 24.0069 112.66 24.5739C112.297 25.0739 112.115 25.7059 112.115 26.4689V31.5039H109.937L109.958 24.9299C109.958 23.8239 109.93 22.8169 109.876 21.9089H111.774L111.854 23.7449H111.914C112.144 23.1139 112.507 22.6059 113.004 22.2249C113.489 21.8819 114.014 21.7109 114.579 21.7109C114.78 21.7109 114.962 21.7249 115.124 21.7499V23.7829Z" fill="white"/>
<path d="M124.871 26.252C124.871 26.634 124.845 26.956 124.791 27.219H118.253C118.278 28.167 118.594 28.892 119.201 29.392C119.752 29.839 120.465 30.063 121.34 30.063C122.308 30.063 123.191 29.912 123.985 29.609L124.327 31.089C123.399 31.485 122.303 31.682 121.038 31.682C119.517 31.682 118.323 31.244 117.454 30.369C116.588 29.494 116.153 28.319 116.153 26.845C116.153 25.398 116.557 24.193 117.365 23.232C118.212 22.206 119.356 21.693 120.795 21.693C122.209 21.693 123.279 22.206 124.006 23.232C124.581 24.047 124.871 25.055 124.871 26.252ZM122.792 25.699C122.807 25.067 122.665 24.521 122.369 24.06C121.992 23.467 121.412 23.171 120.632 23.171C119.92 23.171 119.34 23.46 118.898 24.04C118.535 24.501 118.319 25.054 118.253 25.698H122.792V25.699Z" fill="white"/>
<path d="M45.5469 9.71777H46.4126C47.208 9.71777 47.6826 10.0825 47.6826 10.6978C47.6826 11.3042 47.1816 11.7173 46.439 11.7173C45.6655 11.7173 45.1382 11.3438 45.0898 10.7505H44C44.0571 11.9019 45.0239 12.6577 46.4346 12.6577C47.8188 12.6577 48.8472 11.8491 48.8472 10.7637C48.8472 9.91113 48.3154 9.30469 47.4629 9.20361V9.16846C48.166 9.01025 48.6494 8.42139 48.6494 7.70947C48.6494 6.70312 47.7529 6 46.4565 6C45.0942 6 44.2109 6.7251 44.1538 7.88086H45.2129C45.2612 7.2832 45.7227 6.91406 46.4258 6.91406C47.1201 6.91406 47.5508 7.26562 47.5508 7.83691C47.5508 8.4082 47.0806 8.80371 46.3906 8.80371H45.5469V9.71777Z" fill="white"/>
<path d="M51.5452 11.748C51.0706 11.748 50.7542 11.5063 50.7542 11.124C50.7542 10.7549 51.0574 10.5176 51.5848 10.4824L52.6614 10.4165V10.7725C52.6614 11.335 52.1649 11.748 51.5452 11.748ZM51.2156 12.5742C51.8133 12.5742 52.3978 12.2622 52.6658 11.7568H52.6878V12.4995H53.7425V9.2915C53.7425 8.35547 52.991 7.74463 51.8353 7.74463C50.6487 7.74463 49.9061 8.36865 49.8577 9.23877H50.8729C50.9432 8.85205 51.2728 8.60156 51.7913 8.60156C52.3319 8.60156 52.6614 8.88281 52.6614 9.37061V9.70459L51.431 9.7749C50.2972 9.84521 49.66 10.3418 49.66 11.168C49.66 12.0073 50.3148 12.5742 51.2156 12.5742Z" fill="white"/>
<path d="M58.0402 8.68506V7.84131H54.8805V12.4995H55.9704V8.68506H58.0402Z" fill="white"/>
<path d="M61.5512 7.76221C60.8745 7.76221 60.3471 8.10498 60.0835 8.64551H60.0615V7.84131H58.9936V14.0332H60.0879V11.7261H60.1098C60.3647 12.249 60.8921 12.5742 61.5688 12.5742C62.7378 12.5742 63.4848 11.6558 63.4848 10.1704C63.4848 8.68066 62.7334 7.76221 61.5512 7.76221ZM61.2172 11.6777C60.5361 11.6777 60.0835 11.0845 60.0791 10.1704C60.0835 9.26514 60.5361 8.66309 61.2172 8.66309C61.9248 8.66309 62.3642 9.25195 62.3642 10.1704C62.3642 11.0933 61.9248 11.6777 61.2172 11.6777Z" fill="white"/>
<path d="M64.8601 14.231C65.9236 14.231 66.4378 13.8398 66.8377 12.6841L68.5208 7.84131H67.3694L66.2708 11.5679H66.2532L65.1546 7.84131H63.9593L65.616 12.5039C65.6204 12.5171 65.5545 12.75 65.5545 12.7632C65.4314 13.1938 65.1985 13.3652 64.7459 13.3652C64.68 13.3652 64.4866 13.3608 64.4295 13.3477V14.2134C64.4866 14.2266 64.7986 14.231 64.8601 14.231Z" fill="white"/>
<path d="M71.0343 12.5918C72.234 12.5918 72.9986 12.0117 72.9986 11.1108C72.9986 10.5879 72.691 10.2056 72.1065 10.0649V10.0298C72.5548 9.91113 72.836 9.52002 72.836 9.0498C72.836 8.25 72.1944 7.74463 71.0211 7.74463C69.9312 7.74463 69.2193 8.28516 69.1271 9.16406H70.1642C70.2257 8.80371 70.5421 8.59277 71.0211 8.59277C71.5265 8.59277 71.7682 8.82568 71.7682 9.15967C71.7682 9.5376 71.5089 9.72217 71.0123 9.72217H70.3707V10.478H71.0343C71.6187 10.478 71.9132 10.6714 71.9132 11.0933C71.9132 11.4712 71.5968 11.7305 71.0343 11.7305C70.5245 11.7305 70.1905 11.5151 70.0938 11.1152H69.0304C69.1183 12.0337 69.8873 12.5918 71.0343 12.5918Z" fill="white"/>
<path d="M75.0595 12.4995L77.0854 9.36621H77.1205V12.4995H78.1928V7.84131H77.1205L75.0946 10.9526H75.0595V7.84131H73.9872V12.4995H75.0595Z" fill="white"/>
<path d="M83.0002 7.84131H79.0495V8.68506H80.4822V12.4995H81.5676V8.68506H83.0002V7.84131Z" fill="white"/>
<path d="M85.7818 8.59277C86.4102 8.59277 86.8321 9.0542 86.8541 9.71338H84.6788C84.7227 9.06299 85.1666 8.59277 85.7818 8.59277ZM86.8585 11.1064C86.7398 11.4932 86.3531 11.748 85.8433 11.748C85.127 11.748 84.67 11.2471 84.67 10.5V10.4341H87.9263V10.0781C87.9263 8.66309 87.1002 7.74463 85.7774 7.74463C84.4327 7.74463 83.5801 8.71582 83.5801 10.188C83.5801 11.6733 84.4239 12.5918 85.8213 12.5918C86.9244 12.5918 87.7418 11.9854 87.8824 11.1064H86.8585Z" fill="white"/>
<path d="M92.8259 8.58398C93.2697 8.58398 93.5158 8.79053 93.5158 9.15527C93.5158 9.54199 93.2521 9.74414 92.7424 9.74414H91.9426V8.58398H92.8259ZM92.8083 10.4385C93.3972 10.4385 93.7004 10.6626 93.7004 11.0977C93.7004 11.5239 93.4147 11.7568 92.8962 11.7568H91.9426V10.4385H92.8083ZM90.8703 12.4995H93.1159C94.1486 12.4995 94.7902 11.9766 94.7902 11.1548C94.7902 10.5703 94.3771 10.1396 93.7663 10.0605V10.0254C94.2277 9.94629 94.5837 9.51123 94.5837 9.02344C94.5837 8.28516 94.0212 7.84131 93.0808 7.84131H90.8703V12.4995Z" fill="white"/>
</svg>
