<svg width="138" height="40" viewBox="0 0 138 40" fill="none" xmlns="http://www.w3.org/2000/svg">
<path d="M132.628 0.801252C134.99 0.801252 136.912 2.685 136.912 5V35C136.912 37.315 134.99 39.1988 132.628 39.1988H5.10109C2.73928 39.1988 0.817449 37.315 0.817449 35V5C0.817449 2.685 2.73928 0.801252 5.10109 0.801252H132.628ZM132.628 2.11397e-06H5.10109C2.29676 2.11397e-06 0 2.25125 0 5V35C0 37.7487 2.29676 40 5.10109 40H132.628C135.433 40 137.729 37.7487 137.729 35V5C137.729 2.25125 135.433 2.11397e-06 132.628 2.11397e-06Z" fill="#F4F4F4"/>
<path d="M69.5122 21.7525C67.1159 21.7525 65.1584 23.54 65.1584 26.0063C65.1584 28.4525 67.1159 30.2588 69.5122 30.2588C71.9135 30.2588 73.871 28.4525 73.871 26.0063C73.871 23.54 71.9135 21.7525 69.5122 21.7525ZM69.5122 28.5838C68.1974 28.5838 67.0662 27.52 67.0662 26.0063C67.0662 24.4725 68.1974 23.4275 69.5122 23.4275C70.827 23.4275 71.9632 24.4725 71.9632 26.0063C71.9632 27.52 70.827 28.5838 69.5122 28.5838ZM60.0127 21.7525C57.6113 21.7525 55.6589 23.54 55.6589 26.0063C55.6589 28.4525 57.6113 30.2588 60.0127 30.2588C62.4127 30.2588 64.3664 28.4525 64.3664 26.0063C64.3664 23.54 62.4127 21.7525 60.0127 21.7525ZM60.0127 28.5838C58.6966 28.5838 57.5616 27.52 57.5616 26.0063C57.5616 24.4725 58.6966 23.4275 60.0127 23.4275C61.3275 23.4275 62.4586 24.4725 62.4586 26.0063C62.4586 27.52 61.3275 28.5838 60.0127 28.5838ZM48.7087 23.0563V24.8638H53.1122C52.9834 25.8738 52.639 26.6163 52.1111 27.1338C51.4683 27.7588 50.4673 28.4525 48.7087 28.4525C45.9987 28.4525 43.8767 26.3088 43.8767 23.6525C43.8767 20.9963 45.9987 18.8525 48.7087 18.8525C50.1739 18.8525 51.2401 19.4138 52.0269 20.1413L53.3264 18.8675C52.2259 17.8375 50.7618 17.0463 48.7087 17.0463C44.9925 17.0463 41.8694 20.01 41.8694 23.6525C41.8694 27.295 44.9925 30.2588 48.7087 30.2588C50.7172 30.2588 52.2259 29.6138 53.4119 28.4038C54.6272 27.2125 55.0059 25.5375 55.0059 24.185C55.0059 23.765 54.9702 23.3788 54.9065 23.0563H48.7087ZM94.9321 24.4575C94.5738 23.5063 93.4681 21.7525 91.216 21.7525C88.9843 21.7525 87.1262 23.4763 87.1262 26.0063C87.1262 28.3888 88.9651 30.2588 91.4302 30.2588C93.4235 30.2588 94.5738 29.0675 95.0469 28.3738L93.5676 27.4075C93.0741 28.115 92.402 28.5838 91.4302 28.5838C90.4649 28.5838 89.7724 28.15 89.3286 27.295L95.1323 24.9413L94.9321 24.4575ZM89.0149 25.8738C88.9651 24.2338 90.3144 23.3938 91.281 23.3938C92.0385 23.3938 92.6813 23.765 92.8955 24.2963L89.0149 25.8738ZM84.2976 30H86.2054V17.5H84.2976V30ZM81.1732 22.7H81.1095C80.681 22.2025 79.8635 21.7525 78.828 21.7525C76.655 21.7525 74.6681 23.6225 74.6681 26.02C74.6681 28.4038 76.655 30.2588 78.828 30.2588C79.8635 30.2588 80.681 29.805 81.1095 29.2925H81.1732V29.9025C81.1732 31.5288 80.2869 32.4025 78.8573 32.4025C77.6917 32.4025 76.9687 31.5775 76.6703 30.8838L75.0111 31.5625C75.4893 32.69 76.7557 34.0775 78.8573 34.0775C81.0942 34.0775 82.9816 32.7875 82.9816 29.6488V22.0113H81.1732V22.7ZM78.9912 28.5838C77.6764 28.5838 76.5759 27.505 76.5759 26.02C76.5759 24.5213 77.6764 23.4275 78.9912 23.4275C80.2869 23.4275 81.3084 24.5213 81.3084 26.02C81.3084 27.505 80.2869 28.5838 78.9912 28.5838ZM103.864 17.5H99.3012V30H101.204V25.2638H103.864C105.977 25.2638 108.05 23.765 108.05 21.3813C108.05 18.9988 105.972 17.5 103.864 17.5ZM103.914 23.525H101.204V19.2388H103.914C105.335 19.2388 106.146 20.395 106.146 21.3813C106.146 22.3488 105.335 23.525 103.914 23.525ZM115.676 21.7288C114.301 21.7288 112.871 22.3238 112.283 23.6425L113.972 24.3363C114.335 23.6425 115.004 23.4175 115.71 23.4175C116.697 23.4175 117.698 23.9988 117.714 25.025V25.1563C117.369 24.9613 116.632 24.6725 115.725 24.6725C113.907 24.6725 112.054 25.6538 112.054 27.485C112.054 29.16 113.543 30.2388 115.218 30.2388C116.498 30.2388 117.205 29.6725 117.649 29.0138H117.714V29.98H119.551V25.185C119.551 22.9688 117.863 21.7288 115.676 21.7288ZM115.446 28.5788C114.824 28.5788 113.957 28.2763 113.957 27.52C113.957 26.5525 115.038 26.1813 115.974 26.1813C116.812 26.1813 117.205 26.3625 117.714 26.6013C117.564 27.7588 116.548 28.5788 115.446 28.5788ZM126.246 22.0025L124.059 27.4213H123.994L121.733 22.0025H119.681L123.079 29.575L121.14 33.7888H123.128L128.363 22.0025H126.246ZM109.095 30H111.003V17.5H109.095V30Z" fill="#F4F4F4"/>
<path d="M10.6465 7.53869C10.3468 7.84619 10.1733 8.32494 10.1733 8.94494V31.0599C10.1733 31.6799 10.3468 32.1587 10.6465 32.4662L10.7204 32.5337L23.3635 20.1462V19.8537L10.7204 7.46619L10.6465 7.53869Z" fill="url(#paint0_linear_181_21474)"/>
<path d="M27.5727 24.2775L23.363 20.1462V19.8537L27.5778 15.7225L27.6722 15.7762L32.6636 18.56C34.0881 19.35 34.0881 20.65 32.6636 21.445L27.6722 24.2237L27.5727 24.2775Z" fill="url(#paint1_linear_181_21474)"/>
<path d="M27.6714 24.2237L23.3623 20L10.6453 32.4662C11.1184 32.9537 11.8899 33.0125 12.7673 32.525L27.6714 24.2237Z" fill="url(#paint2_linear_181_21474)"/>
<path d="M27.6714 15.7763L12.7673 7.475C11.8899 6.9925 11.1184 7.05125 10.6453 7.53875L23.3623 20L27.6714 15.7763Z" fill="url(#paint3_linear_181_21474)"/>
<path d="M49.4398 11.4492V12.3984H44.7864V11.4492H49.4398ZM45.1153 11.4492V13.9673H43.9706L43.9136 11.4492H45.1153ZM50.3389 11.4492L50.2468 13.9717H49.1284V11.4492H50.3389ZM48.6898 6V6.95361H45.6811V6H48.6898ZM49.5802 6V12.3984H48.3784V6H49.5802ZM45.4881 6H46.6942L46.532 8.60156C46.5086 9.02051 46.4647 9.39404 46.4004 9.72217C46.339 10.0503 46.263 10.3418 46.1723 10.5967C46.0817 10.8516 45.9808 11.0757 45.8697 11.269C45.7615 11.4595 45.646 11.625 45.5232 11.7656C45.4033 11.9062 45.2791 12.0278 45.1504 12.1304C45.0247 12.23 44.9004 12.3193 44.7776 12.3984H44.1066V11.4492H44.396C44.4808 11.376 44.57 11.2734 44.6636 11.1416C44.7601 11.0098 44.8522 10.8354 44.9399 10.6187C45.0305 10.4019 45.1095 10.1279 45.1767 9.79688C45.244 9.46582 45.2922 9.06738 45.3215 8.60156L45.4881 6Z" fill="#F4F4F4"/>
<path d="M50.9791 10.0693V9.97705C50.9791 9.62842 51.0288 9.30762 51.1282 9.01465C51.2276 8.71875 51.3724 8.4624 51.5624 8.24561C51.7525 8.02881 51.9849 7.86035 52.2598 7.74023C52.5346 7.61719 52.8475 7.55566 53.1984 7.55566C53.5551 7.55566 53.8709 7.61719 54.1457 7.74023C54.4235 7.86035 54.6574 8.02881 54.8475 8.24561C55.0375 8.4624 55.1823 8.71875 55.2817 9.01465C55.3811 9.30762 55.4308 9.62842 55.4308 9.97705V10.0693C55.4308 10.415 55.3811 10.7358 55.2817 11.0317C55.1823 11.3247 55.0375 11.5811 54.8475 11.8008C54.6574 12.0176 54.425 12.186 54.1501 12.3062C53.8753 12.4263 53.5609 12.4863 53.2071 12.4863C52.8563 12.4863 52.5419 12.4263 52.2642 12.3062C51.9864 12.186 51.7525 12.0176 51.5624 11.8008C51.3724 11.5811 51.2276 11.3247 51.1282 11.0317C51.0288 10.7358 50.9791 10.415 50.9791 10.0693ZM52.137 9.97705V10.0693C52.137 10.2773 52.1574 10.4722 52.1984 10.6538C52.2393 10.8354 52.3022 10.9951 52.387 11.1328C52.4718 11.2705 52.5814 11.3789 52.7159 11.458C52.8533 11.5342 53.0171 11.5723 53.2071 11.5723C53.3943 11.5723 53.5551 11.5342 53.6896 11.458C53.8241 11.3789 53.9337 11.2705 54.0185 11.1328C54.1062 10.9951 54.1706 10.8354 54.2115 10.6538C54.2524 10.4722 54.2729 10.2773 54.2729 10.0693V9.97705C54.2729 9.77197 54.2524 9.58008 54.2115 9.40137C54.1706 9.21973 54.1062 9.06006 54.0185 8.92236C53.9337 8.78174 53.8226 8.67188 53.6852 8.59277C53.5507 8.51074 53.3884 8.46973 53.1984 8.46973C53.0112 8.46973 52.8504 8.51074 52.7159 8.59277C52.5814 8.67188 52.4718 8.78174 52.387 8.92236C52.3022 9.06006 52.2393 9.21973 52.1984 9.40137C52.1574 9.58008 52.137 9.77197 52.137 9.97705Z" fill="#F4F4F4"/>
<path d="M58.3999 11.5723C58.5636 11.5723 58.7098 11.54 58.8385 11.4756C58.9671 11.4111 59.0695 11.3203 59.1455 11.2031C59.2244 11.0859 59.2668 10.9497 59.2727 10.7944H60.3648C60.3589 11.1167 60.2683 11.4053 60.0929 11.6602C59.9174 11.915 59.6835 12.1172 59.3911 12.2666C59.1016 12.4131 58.7771 12.4863 58.4174 12.4863C58.0519 12.4863 57.7332 12.4248 57.4613 12.3018C57.1894 12.1787 56.9628 12.0073 56.7815 11.7876C56.6031 11.5679 56.4686 11.313 56.378 11.0229C56.2903 10.7329 56.2464 10.4224 56.2464 10.0913V9.95068C56.2464 9.61963 56.2903 9.30908 56.378 9.01904C56.4686 8.729 56.6031 8.47412 56.7815 8.25439C56.9628 8.03467 57.1894 7.86328 57.4613 7.74023C57.7332 7.61719 58.0505 7.55566 58.413 7.55566C58.7961 7.55566 59.1323 7.63037 59.4218 7.77979C59.7142 7.9292 59.9423 8.14014 60.106 8.4126C60.2727 8.68506 60.3589 9.00586 60.3648 9.375H59.2727C59.2668 9.20508 59.2288 9.05273 59.1587 8.91797C59.0885 8.7832 58.9891 8.6748 58.8604 8.59277C58.7318 8.51074 58.5753 8.46973 58.3911 8.46973C58.1952 8.46973 58.0315 8.51074 57.8999 8.59277C57.7712 8.6748 57.6704 8.7876 57.5973 8.93115C57.5271 9.07178 57.4774 9.22998 57.4481 9.40576C57.4218 9.57861 57.4087 9.76025 57.4087 9.95068V10.0913C57.4087 10.2847 57.4218 10.4692 57.4481 10.645C57.4774 10.8208 57.5271 10.979 57.5973 11.1196C57.6704 11.2573 57.7712 11.3672 57.8999 11.4492C58.0315 11.5312 58.1981 11.5723 58.3999 11.5723Z" fill="#F4F4F4"/>
<path d="M63.619 7.64355V12.3984H62.4567V7.64355H63.619ZM65.1628 7.64355V8.54883H60.9392V7.64355H65.1628Z" fill="#F4F4F4"/>
<path d="M67.4652 11.8711L68.7371 7.64355H69.9783L68.0749 13.1191C68.031 13.2363 67.974 13.3638 67.9038 13.5015C67.8366 13.6392 67.7459 13.7695 67.6319 13.8926C67.5178 14.0186 67.3746 14.1211 67.2021 14.2002C67.0325 14.2793 66.8263 14.3188 66.5837 14.3188C66.4784 14.3188 66.3848 14.3115 66.303 14.2969C66.2211 14.2822 66.1348 14.2632 66.0442 14.2397V13.3696C66.0734 13.3726 66.107 13.374 66.1451 13.374C66.186 13.377 66.2211 13.3784 66.2503 13.3784C66.4199 13.3784 66.5603 13.3579 66.6714 13.3169C66.7825 13.2788 66.8717 13.2158 66.9389 13.1279C67.0091 13.043 67.0676 12.9316 67.1143 12.7939L67.4652 11.8711ZM66.838 7.64355L67.9126 11.146L68.1012 12.3721L67.3029 12.5171L65.588 7.64355H66.838Z" fill="#F4F4F4"/>
<path d="M73.9036 7.64355V8.56201H71.5834V7.64355H73.9036ZM71.8904 7.64355V12.3984H70.7282V7.64355H71.8904ZM74.7807 7.64355V12.3984H73.6141V7.64355H74.7807Z" fill="#F4F4F4"/>
<path d="M79.2542 9.59473V10.5044H76.82V9.59473H79.2542ZM77.184 7.64355V12.3984H76.0218V7.64355H77.184ZM80.0656 7.64355V12.3984H78.8989V7.64355H80.0656Z" fill="#F4F4F4"/>
<path d="M81.0917 10.0693V9.97705C81.0917 9.62842 81.1414 9.30762 81.2408 9.01465C81.3402 8.71875 81.485 8.4624 81.675 8.24561C81.8651 8.02881 82.0975 7.86035 82.3724 7.74023C82.6472 7.61719 82.9601 7.55566 83.311 7.55566C83.6677 7.55566 83.9835 7.61719 84.2583 7.74023C84.5361 7.86035 84.77 8.02881 84.9601 8.24561C85.1501 8.4624 85.2949 8.71875 85.3943 9.01465C85.4937 9.30762 85.5434 9.62842 85.5434 9.97705V10.0693C85.5434 10.415 85.4937 10.7358 85.3943 11.0317C85.2949 11.3247 85.1501 11.5811 84.9601 11.8008C84.77 12.0176 84.5376 12.186 84.2627 12.3062C83.9879 12.4263 83.6736 12.4863 83.3198 12.4863C82.9689 12.4863 82.6546 12.4263 82.3768 12.3062C82.099 12.186 81.8651 12.0176 81.675 11.8008C81.485 11.5811 81.3402 11.3247 81.2408 11.0317C81.1414 10.7358 81.0917 10.415 81.0917 10.0693ZM82.2496 9.97705V10.0693C82.2496 10.2773 82.2701 10.4722 82.311 10.6538C82.3519 10.8354 82.4148 10.9951 82.4996 11.1328C82.5844 11.2705 82.694 11.3789 82.8285 11.458C82.966 11.5342 83.1297 11.5723 83.3198 11.5723C83.5069 11.5723 83.6677 11.5342 83.8022 11.458C83.9367 11.3789 84.0464 11.2705 84.1311 11.1328C84.2189 10.9951 84.2832 10.8354 84.3241 10.6538C84.3651 10.4722 84.3855 10.2773 84.3855 10.0693V9.97705C84.3855 9.77197 84.3651 9.58008 84.3241 9.40137C84.2832 9.21973 84.2189 9.06006 84.1311 8.92236C84.0464 8.78174 83.9352 8.67188 83.7978 8.59277C83.6633 8.51074 83.501 8.46973 83.311 8.46973C83.1239 8.46973 82.963 8.51074 82.8285 8.59277C82.694 8.67188 82.5844 8.78174 82.4996 8.92236C82.4148 9.06006 82.3519 9.21973 82.311 9.40137C82.2701 9.58008 82.2496 9.77197 82.2496 9.97705Z" fill="#F4F4F4"/>
<path d="M91.3149 10.3857H89.8106L89.8018 9.59912H91.0386C91.2228 9.59912 91.3734 9.58008 91.4904 9.54199C91.6073 9.50391 91.6936 9.44678 91.7491 9.37061C91.8076 9.29443 91.8368 9.20215 91.8368 9.09375C91.8368 9 91.8193 8.91943 91.7842 8.85205C91.7491 8.78174 91.6965 8.72461 91.6263 8.68066C91.5591 8.63672 91.4728 8.60449 91.3676 8.58398C91.2652 8.56055 91.1453 8.54883 91.0079 8.54883H90.2228V12.3984H89.0606V7.64355H91.0079C91.3149 7.64355 91.5912 7.67139 91.8368 7.72705C92.0825 7.77979 92.2915 7.86035 92.464 7.96875C92.6365 8.07715 92.7681 8.21484 92.8588 8.38184C92.9523 8.5459 92.9991 8.73926 92.9991 8.96191C92.9991 9.1084 92.9669 9.24609 92.9026 9.375C92.8383 9.50391 92.7433 9.61816 92.6175 9.71777C92.4918 9.81738 92.3368 9.89941 92.1526 9.96387C91.9684 10.0254 91.7579 10.0635 91.5211 10.0781L91.3149 10.3857ZM91.3149 12.3984H89.4992L89.929 11.4932H91.3149C91.4845 11.4932 91.6249 11.4727 91.736 11.4316C91.8471 11.3877 91.929 11.3247 91.9816 11.2427C92.0371 11.1606 92.0649 11.061 92.0649 10.9438C92.0649 10.8296 92.0386 10.7314 91.986 10.6494C91.9363 10.5645 91.8559 10.5 91.7447 10.4561C91.6366 10.4092 91.4933 10.3857 91.3149 10.3857H90.1176L90.1263 9.59912H91.5167L91.8237 9.91113C92.1395 9.93164 92.4012 9.99609 92.6088 10.1045C92.8164 10.21 92.9713 10.3447 93.0737 10.5088C93.176 10.6699 93.2272 10.8472 93.2272 11.0405C93.2272 11.2661 93.1848 11.4639 93.1 11.6338C93.0152 11.8037 92.8909 11.9458 92.7272 12.0601C92.5634 12.1714 92.3632 12.2563 92.1263 12.3149C91.8895 12.3706 91.619 12.3984 91.3149 12.3984Z" fill="#F4F4F4"/>
<defs>
<linearGradient id="paint0_linear_181_21474" x1="22.2409" y1="31.2902" x2="5.46188" y2="14.172" gradientUnits="userSpaceOnUse">
<stop stop-color="#00A0FF"/>
<stop offset="0.0066" stop-color="#00A1FF"/>
<stop offset="0.2601" stop-color="#00BEFF"/>
<stop offset="0.5122" stop-color="#00D2FF"/>
<stop offset="0.7604" stop-color="#00DFFF"/>
<stop offset="1" stop-color="#00E3FF"/>
</linearGradient>
<linearGradient id="paint1_linear_181_21474" x1="34.5185" y1="19.9986" x2="9.83241" y2="19.9986" gradientUnits="userSpaceOnUse">
<stop stop-color="#FFE000"/>
<stop offset="0.4087" stop-color="#FFBD00"/>
<stop offset="0.7754" stop-color="#FFA500"/>
<stop offset="1" stop-color="#FF9C00"/>
</linearGradient>
<linearGradient id="paint2_linear_181_21474" x1="25.3282" y1="17.7039" x2="2.57449" y2="-5.50988" gradientUnits="userSpaceOnUse">
<stop stop-color="#FF3A44"/>
<stop offset="1" stop-color="#C31162"/>
</linearGradient>
<linearGradient id="paint3_linear_181_21474" x1="7.44413" y1="39.8238" x2="17.6047" y2="29.4579" gradientUnits="userSpaceOnUse">
<stop stop-color="#32A071"/>
<stop offset="0.0685" stop-color="#2DA771"/>
<stop offset="0.4762" stop-color="#15CF74"/>
<stop offset="0.8009" stop-color="#06E775"/>
<stop offset="1" stop-color="#00F076"/>
</linearGradient>
</defs>
</svg>
