<svg width="32" height="21" viewBox="0 0 32 21" fill="none" xmlns="http://www.w3.org/2000/svg">
<path d="M16.1187 5.34101C16.9127 5.95454 17.5546 6.73783 17.9956 7.63161C18.4367 8.52539 18.6655 9.50623 18.6646 10.4999C18.6652 11.4932 18.4363 12.4737 17.9952 13.3671C17.5542 14.2605 16.9125 15.0435 16.1187 15.6568C15.3248 15.0434 14.6831 14.2602 14.242 13.3666C13.8009 12.473 13.5721 11.4924 13.5729 10.4989C13.5721 9.50542 13.8009 8.52478 14.242 7.63118C14.6831 6.73758 15.3248 5.95444 16.1187 5.34101ZM15.2655 4.77917C14.425 5.4854 13.7503 6.36286 13.2881 7.35091C12.8259 8.33895 12.5871 9.41402 12.5883 10.5018C12.5871 11.5891 12.8257 12.6637 13.2876 13.6514C13.7495 14.6391 14.4237 15.5163 15.2636 16.2225C14.2489 16.7832 13.1029 17.0727 11.9394 17.0623C10.7759 17.0518 9.63539 16.7418 8.63131 16.163C7.62724 15.5842 6.79454 14.7568 6.216 13.763C5.63745 12.7693 5.3332 11.6438 5.3335 10.4984C5.33379 9.35299 5.63862 8.22762 6.21768 7.23415C6.79673 6.24067 7.62986 5.41368 8.63423 4.83539C9.6386 4.2571 10.7792 3.94764 11.9428 3.93777C13.1063 3.92791 14.2512 4.21799 15.2655 4.77917ZM16.9739 16.2225C17.8137 15.5163 18.4879 14.6391 18.9498 13.6514C19.4117 12.6637 19.6503 11.5891 19.6492 10.5018C19.6503 9.41402 19.4116 8.33895 18.9493 7.35091C18.4871 6.36286 17.8124 5.4854 16.9719 4.77917C17.9862 4.21799 19.1321 3.92791 20.2956 3.93777C21.4592 3.94764 22.5998 4.2571 23.6042 4.83539C24.6085 5.41368 25.4417 6.24067 26.0207 7.23415C26.5998 8.22762 26.9046 9.35299 26.9049 10.4984C26.9052 11.6438 26.601 12.7693 26.0224 13.763C25.4439 14.7568 24.6112 15.5842 23.6071 16.163C22.603 16.7418 21.4625 17.0518 20.299 17.0623C19.1355 17.0727 17.9895 16.7832 16.9748 16.2225H16.9739Z" fill="#A6A6A6"/>
</svg>
