<svg width="24" height="24" viewBox="0 0 24 24" fill="none" xmlns="http://www.w3.org/2000/svg">
<path d="M19.4654 4.13242C19.4654 4.13242 21.1306 3.48314 20.9918 5.05998C20.9455 5.70927 20.5293 7.98177 20.2055 10.4398L19.0954 17.7211C19.0954 17.7211 19.0029 18.7878 18.1703 18.9733C17.3377 19.1588 16.0889 18.324 15.8576 18.1385C15.6726 17.9994 12.3886 15.9124 11.2323 14.8921C10.9085 14.6138 10.5384 14.0572 11.2785 13.408L16.1352 8.77022C16.6902 8.21367 17.2453 6.9151 14.9326 8.49195L8.45705 12.8978C8.45705 12.8978 7.71699 13.3616 6.3294 12.9442L3.32289 12.0166C3.32289 12.0166 2.2128 11.321 4.10921 10.6253C8.73459 8.44553 14.4238 6.2194 19.4654 4.13242Z" fill="#A6A6A6"/>
</svg>
