<svg width="32" height="21" viewBox="0 0 32 21" fill="none" xmlns="http://www.w3.org/2000/svg">
<path d="M15.8442 5.85828L13.7071 16.1758H11.1208L13.2611 5.85828H15.8442ZM26.7239 12.52L28.0843 8.64501L28.8685 12.52H26.7239ZM29.6079 16.1758H32L29.913 5.85828H27.7055C27.7023 5.85828 27.6981 5.85828 27.6949 5.85828C27.2051 5.85828 26.7847 6.1678 26.6076 6.60728L26.6044 6.61499L22.7261 16.1758H25.4404L25.9803 14.6337H29.2974L29.6079 16.1758ZM22.8594 12.8075C22.8701 10.0835 19.2115 9.93373 19.2371 8.7166C19.2457 8.34651 19.586 7.95218 20.3329 7.85195C20.4716 7.83763 20.6316 7.82882 20.7938 7.82882C21.5524 7.82882 22.2715 8.00726 22.9117 8.32668L22.8829 8.31347L23.3364 6.12484C22.6183 5.83735 21.7871 5.66993 20.9186 5.66663H20.9176C18.3612 5.66663 16.5634 7.071 16.5473 9.07899C16.5313 10.5638 17.8309 11.391 18.8114 11.8866C19.8197 12.3922 20.1579 12.7172 20.1526 13.1677C20.1462 13.8616 19.3502 14.1656 18.6055 14.1777C18.5714 14.1788 18.5297 14.1788 18.4892 14.1788C17.5599 14.1788 16.685 13.9376 15.921 13.5113L15.9499 13.5256L15.4815 15.7859C16.3201 16.1328 17.2921 16.3333 18.3099 16.3333C18.326 16.3333 18.342 16.3333 18.358 16.3333H18.3558C21.0723 16.3333 22.8488 14.9487 22.8584 12.8042L22.8594 12.8075ZM12.1494 5.85828L7.96052 16.1758H5.22699L3.16564 7.94007C3.12617 7.53913 2.88824 7.20428 2.55748 7.03686L2.55108 7.03355C1.81702 6.66126 0.963457 6.35835 0.0704189 6.1678L0 6.15568L0.0618833 5.85718H4.46199C5.06162 5.85718 5.55988 6.30989 5.65271 6.90138L5.65377 6.90799L6.74313 12.8791L9.43398 5.85608L12.1494 5.85828Z" fill="#A6A6A6"/>
</svg>
