<svg width="24" height="24" viewBox="0 0 24 24" fill="none" xmlns="http://www.w3.org/2000/svg">
<path d="M12.375 2C7.1875 2 3 6.1875 3 11.375C3 13.5 3.6875 15.5 5 17.125L3.6875 21.125C3.625 21.375 3.6875 21.625 3.875 21.8125C3.9375 21.9375 4.125 22 4.25 22C4.3125 22 4.4375 22 4.5 21.9375L8.8125 20C9.9375 20.5 11.125 20.75 12.375 20.75C17.5625 20.75 21.75 16.5625 21.75 11.375C21.75 6.1875 17.5625 2 12.375 2ZM17.8125 14.8125C17.5625 15.5625 16.625 16.1875 15.8125 16.3125C15.625 16.375 15.4375 16.375 15.1875 16.375C14.6875 16.375 13.9375 16.25 12.625 15.6875C11.125 15.0625 9.625 13.75 8.4375 12.0625V12C8.0625 11.4375 7.375 10.375 7.375 9.25C7.375 7.875 8.0625 7.1875 8.3125 6.875C8.625 6.5625 9.0625 6.375 9.5625 6.375C9.6875 6.375 9.75 6.375 9.875 6.375C10.3125 6.375 10.625 6.5 10.9375 7.125L11.1875 7.625C11.375 8.125 11.625 8.6875 11.6875 8.75C11.875 9.125 11.875 9.4375 11.6875 9.75C11.625 9.9375 11.5 10.0625 11.375 10.1875C11.3125 10.3125 11.25 10.375 11.1875 10.375C11.125 10.4375 11.125 10.4375 11.0625 10.5C11.25 10.8125 11.625 11.375 12.125 11.8125C12.875 12.5 13.4375 12.6875 13.75 12.8125C13.875 12.6875 14 12.4375 14.1875 12.25L14.25 12.125C14.5625 11.6875 15.0625 11.5625 15.5625 11.75C15.8125 11.875 17.1875 12.5 17.1875 12.5L17.3125 12.5625C17.5 12.6875 17.75 12.75 17.875 13C18.125 13.5625 17.9375 14.375 17.8125 14.8125Z" fill="#A6A6A6"/>
</svg>
