<svg width="36" height="36" viewBox="0 0 36 36" fill="none" xmlns="http://www.w3.org/2000/svg">
<path d="M0 8C0 3.58172 3.58172 0 8 0H28C32.4183 0 36 3.58172 36 8V28C36 32.4183 32.4183 36 28 36H8C3.58172 36 0 32.4183 0 28V8Z" fill="#971F43"/>
<path d="M22.6493 12C23.0905 11.4264 23.3309 10.7236 23.3333 10H22C22 10.5304 21.7893 11.0391 21.4142 11.4142C21.0391 11.7893 20.5304 12 20 12H16C15.4696 12 14.9609 11.7893 14.5858 11.4142C14.2107 11.0391 14 10.5304 14 10H12.6667C12.6691 10.7236 12.9095 11.4264 13.3507 12H10V12.6667C10.0714 13.6358 10.4687 14.5522 11.1273 15.2667C12.0677 14.3657 13.0593 13.5198 14.0973 12.7333C14.5458 13.0426 15.0639 13.2361 15.6053 13.2967C15.6053 13.2967 13.718 14.718 13.0253 15.3333H14C14.8837 15.3344 15.731 15.6859 16.3559 16.3108C16.9807 16.9357 17.3323 17.7829 17.3333 18.6667V22H16V18.6667C15.998 18.4315 15.9542 18.1985 15.8707 17.9787C15.7086 18.0122 15.5408 18.005 15.3822 17.9577C15.2236 17.9105 15.0792 17.8246 14.962 17.7077C14.8448 17.5909 14.7584 17.4468 14.7106 17.2884C14.6628 17.13 14.655 16.9622 14.688 16.8C14.4684 16.7151 14.2354 16.67 14 16.6667H12.29L14.014 24.1333C14.0468 24.6383 14.2701 25.1119 14.6388 25.4584C15.0075 25.8049 15.494 25.9985 16 26H20C20.506 25.9985 20.9925 25.8049 21.3612 25.4584C21.7299 25.1119 21.9532 24.6383 21.986 24.1333L23.71 16.6667H22C21.7648 16.6687 21.5319 16.7125 21.312 16.796C21.3456 16.9581 21.3384 17.1259 21.2911 17.2845C21.2438 17.4431 21.1579 17.5874 21.0411 17.7047C20.9243 17.8219 20.7802 17.9083 20.6217 17.9561C20.4633 18.0039 20.2955 18.0117 20.1333 17.9787C20.0484 18.1983 20.0032 18.4312 20 18.6667V22H18.6667V18.6667C18.6677 17.7829 19.0193 16.9357 19.6441 16.3108C20.269 15.6859 21.1163 15.3344 22 15.3333H22.9747C22.282 14.718 20.3947 13.2933 20.3947 13.2933C20.9358 13.2338 21.4538 13.0414 21.9027 12.7333C22.9407 13.5198 23.9323 14.3657 24.8727 15.2667C25.5313 14.5522 25.9286 13.6358 26 12.6667V12H22.6493ZM20 23.3333C20.1768 23.3333 20.3464 23.4036 20.4714 23.5286C20.5964 23.6536 20.6667 23.8232 20.6667 24C20.6667 24.1768 20.5964 24.3464 20.4714 24.4714C20.3464 24.5964 20.1768 24.6667 20 24.6667H16C15.8232 24.6667 15.6536 24.5964 15.5286 24.4714C15.4036 24.3464 15.3333 24.1768 15.3333 24C15.3333 23.8232 15.4036 23.6536 15.5286 23.5286C15.6536 23.4036 15.8232 23.3333 16 23.3333H20Z" fill="white"/>
</svg>
