<svg width="36" height="36" viewBox="0 0 36 36" fill="none" xmlns="http://www.w3.org/2000/svg">
<path d="M0 8C0 3.58172 3.58172 0 8 0H28C32.4183 0 36 3.58172 36 8V28C36 32.4183 32.4183 36 28 36H8C3.58172 36 0 32.4183 0 28V8Z" fill="#7760E8"/>
<path d="M19 14.0794V13.5H19.5C19.7762 13.5 20 13.2763 20 13V12.5C20 12.2238 19.7762 12 19.5 12H16.5C16.2238 12 16 12.2238 16 12.5V13C16 13.2763 16.2238 13.5 16.5 13.5H17V14.0794C13.6091 14.566 11 17.4744 11 21H25C25 17.4744 22.3909 14.566 19 14.0794ZM25.5 22H10.5C10.2237 22 10 22.2238 10 22.5V23.5C10 23.7763 10.2237 24 10.5 24H25.5C25.7762 24 26 23.7763 26 23.5V22.5C26 22.2238 25.7762 22 25.5 22Z" fill="white"/>
</svg>
