<svg width="36" height="36" viewBox="0 0 36 36" fill="none" xmlns="http://www.w3.org/2000/svg">
<path d="M0 8C0 3.58172 3.58172 0 8 0H28C32.4183 0 36 3.58172 36 8V28C36 32.4183 32.4183 36 28 36H8C3.58172 36 0 32.4183 0 28V8Z" fill="#EB5545"/>
<path d="M19.7805 10.172C19.7781 10.0958 19.695 10.0464 19.6297 10.0857C16.5853 11.9207 16.6221 16.4755 16.6587 17.3526C16.6616 17.4236 16.594 17.4733 16.53 17.4424C16.1625 17.2649 15.1763 16.6311 15.1142 14.9212C15.1114 14.8449 15.0291 14.7962 14.9635 14.8353C13.189 15.8946 12 17.8416 12 20C12 23.3137 14.7858 26 18.2222 26C21.6587 26 24.4444 23.3137 24.4444 20C24.4444 15.1935 19.908 14.1539 19.7805 10.172Z" fill="white"/>
</svg>
