<svg width="36" height="36" viewBox="0 0 36 36" fill="none" xmlns="http://www.w3.org/2000/svg">
<path d="M0 8C0 3.58172 3.58172 0 8 0H28C32.4183 0 36 3.58172 36 8V28C36 32.4183 32.4183 36 28 36H8C3.58172 36 0 32.4183 0 28V8Z" fill="#244AF9"/>
<path d="M15.52 10.359C15.5505 10.2553 15.6138 10.1643 15.7003 10.0996C15.7868 10.0349 15.892 9.99994 16 10H20C20.0792 10.0001 20.1573 10.0189 20.2277 10.055C20.2982 10.0912 20.3591 10.1435 20.4054 10.2078C20.4516 10.272 20.482 10.3463 20.494 10.4246C20.5059 10.5029 20.4991 10.5829 20.474 10.658L18.694 16H22.5C22.5937 15.9999 22.6855 16.0262 22.7649 16.0757C22.8444 16.1252 22.9083 16.1961 22.9495 16.2802C22.9907 16.3643 23.0074 16.4583 22.9977 16.5514C22.9881 16.6445 22.9525 16.7331 22.895 16.807L15.895 25.807C15.8233 25.8996 15.7214 25.9642 15.6069 25.9893C15.4925 26.0144 15.3729 25.9986 15.269 25.9446C15.165 25.8905 15.0834 25.8017 15.0382 25.6935C14.9931 25.5854 14.9874 25.4649 15.022 25.353L16.823 19.5H13.5C13.4223 19.5 13.3456 19.482 13.2761 19.4472C13.2066 19.4124 13.1461 19.3619 13.0995 19.2997C13.0529 19.2375 13.0215 19.1652 13.0077 19.0887C12.9939 19.0122 12.9981 18.9336 13.02 18.859L15.52 10.359Z" fill="white"/>
</svg>
