<svg width="24" height="24" viewBox="0 0 24 24" fill="none" xmlns="http://www.w3.org/2000/svg">
  <path d="M20.0343 6.05767C19.8234 5.80451 19.5593 5.6009 19.2607 5.4613C18.9622 5.3217 18.6367 5.24954 18.3071 5.24994H6.18142L6.14992 4.9867C6.08546 4.43953 5.82247 3.93503 5.41081 3.56884C4.99915 3.20266 4.46743 3.00026 3.91648 3L3.74998 3C3.55107 3 3.36031 3.07902 3.21966 3.21966C3.07902 3.36031 3 3.55107 3 3.74998C3 3.94889 3.07902 4.13965 3.21966 4.2803C3.36031 4.42095 3.55107 4.49996 3.74998 4.49996H3.91648C4.10017 4.49999 4.27747 4.56743 4.41474 4.68949C4.55202 4.81156 4.63972 4.97976 4.66121 5.1622L5.69318 13.937C5.80032 14.8495 6.23878 15.691 6.92533 16.3017C7.61189 16.9123 8.49875 17.2497 9.41759 17.2496H17.2496C17.4485 17.2496 17.6393 17.1706 17.78 17.03C17.9206 16.8893 17.9996 16.6986 17.9996 16.4997C17.9996 16.3008 17.9206 16.11 17.78 15.9693C17.6393 15.8287 17.4485 15.7497 17.2496 15.7497H9.41759C8.95339 15.7484 8.50096 15.6035 8.12232 15.335C7.74368 15.0664 7.45737 14.6874 7.30264 14.2497H16.2424C17.1216 14.2498 17.9729 13.9409 18.6475 13.3771C19.3221 12.8132 19.7771 12.0303 19.9331 11.165L20.5218 7.89963C20.5806 7.57564 20.5674 7.24269 20.4831 6.92438C20.3989 6.60607 20.2457 6.31017 20.0343 6.05767ZM19.0496 7.63338L18.4601 10.8988C18.3665 11.4185 18.093 11.8888 17.6875 12.2272C17.2821 12.5656 16.7705 12.7506 16.2424 12.7498H7.06415L6.35842 6.74991H18.3071C18.4173 6.74925 18.5263 6.77287 18.6263 6.8191C18.7263 6.86532 18.8149 6.93301 18.8857 7.01735C18.9566 7.1017 19.0081 7.20062 19.0364 7.30709C19.0647 7.41357 19.0692 7.52497 19.0496 7.63338Z" fill="white" />
  <path d="M8.24996 21C9.07836 21 9.74992 20.3284 9.74992 19.5C9.74992 18.6716 9.07836 18.0001 8.24996 18.0001C7.42155 18.0001 6.75 18.6716 6.75 19.5C6.75 20.3284 7.42155 21 8.24996 21Z" fill="white" />
  <path d="M15.7497 21C16.5781 21 17.2496 20.3284 17.2496 19.5C17.2496 18.6716 16.5781 18.0001 15.7497 18.0001C14.9212 18.0001 14.2497 18.6716 14.2497 19.5C14.2497 20.3284 14.9212 21 15.7497 21Z" fill="white" />
</svg>